<svg width="68" height="65" viewBox="0 0 68 65" fill="none" xmlns="http://www.w3.org/2000/svg">
<path d="M46.5 62C50.0899 62 53 59.3137 53 56C53 52.6863 50.0899 50 46.5 50C42.9101 50 40 52.6863 40 56C40 59.3137 42.9101 62 46.5 62Z" stroke="#FA7070" stroke-width="5" stroke-linecap="round" stroke-linejoin="round"/>
<path d="M27.8 56H9.2C7.55566 56 5.97866 55.3431 4.81594 54.1737C3.65321 53.0044 3 51.4184 3 49.7647V9.23556C3 7.58187 3.65321 5.9959 4.81594 4.82656C5.97866 3.65723 7.55566 3.0003 9.2 3.0003H21.29C22.3269 2.99008 23.3498 3.24157 24.2651 3.73176C25.1803 4.22195 25.9587 4.93518 26.529 5.80617L29.04 9.54732C29.6045 10.4094 30.3731 11.1171 31.2767 11.6068C32.1802 12.0966 33.1906 12.353 34.217 12.3532H58.8C60.4443 12.3532 62.0213 13.0101 63.1841 14.1795C64.3468 15.3488 65 16.9348 65 18.5884V24.8237" stroke="#FA7070" stroke-width="5" stroke-linecap="round" stroke-linejoin="round"/>
<path d="M65 37L51 51" stroke="#FA7070" stroke-width="5" stroke-linecap="round" stroke-linejoin="round"/>
<path d="M62 40L65 43" stroke="#FA7070" stroke-width="5" stroke-linecap="round" stroke-linejoin="round"/>
</svg>
