<svg width="373" height="171" viewBox="0 0 373 171" fill="none" xmlns="http://www.w3.org/2000/svg">
<path d="M232.212 62.7658C232.749 62.5289 233.204 62.1397 233.522 61.6463C233.84 61.1529 234.006 60.5771 234 59.9902C233.994 59.4033 233.816 58.8311 233.488 58.3444C233.16 57.8577 232.697 57.4779 232.155 57.2522L206.462 45.541C205.681 45.1845 204.832 45 203.974 45C203.115 45 202.267 45.1845 201.486 45.541L175.795 57.2402C175.261 57.4741 174.807 57.8586 174.489 58.3466C174.17 58.8346 174 59.405 174 59.988C174 60.571 174.17 61.1414 174.489 61.6294C174.807 62.1174 175.261 62.5019 175.795 62.7358L201.486 74.459C202.267 74.8155 203.115 75 203.974 75C204.832 75 205.681 74.8155 206.462 74.459L232.212 62.7658Z" stroke="#FF9B9B" stroke-width="5" stroke-linecap="round" stroke-linejoin="round"/>
<path d="M234 60V78" stroke="#FF9B9B" stroke-width="4" stroke-linecap="round" stroke-linejoin="round"/>
<path d="M186 67V77.7692C186 80.2174 187.896 82.5653 191.272 84.2964C194.648 86.0275 199.226 87 204 87C208.774 87 213.352 86.0275 216.728 84.2964C220.104 82.5653 222 80.2174 222 77.7692V67" stroke="#FF9B9B" stroke-width="4" stroke-linecap="round" stroke-linejoin="round"/>
<path d="M22.952 37.788C23.6107 35.3053 23.94 33.228 23.94 31.556C23.94 29.884 23.484 28.516 22.572 27.452C21.66 26.3373 20.4693 25.78 19 25.78C17.5813 25.78 16.3907 26.4893 15.428 27.908C14.4653 29.3267 13.984 30.948 13.984 32.772C13.984 36.3187 16.0107 39.3587 20.064 41.892C24.1173 44.5267 26.8787 46.4267 28.348 47.592C29.8173 48.7573 30.856 49.8213 31.464 50.784C32.984 53.2667 33.744 55.8253 33.744 58.46C33.744 63.02 32.1987 66.668 29.108 69.404C26.068 72.0893 22.6227 73.432 18.772 73.432C14.212 73.432 10.3867 71.5067 7.296 67.656C5.06667 64.8693 3.01467 61.3987 1.14 57.244L8.512 53.672C9.67733 56.712 11.1213 59.296 12.844 61.424C14.6173 63.5013 16.492 64.54 18.468 64.54C19.7347 64.54 20.8747 64.1347 21.888 63.324C22.9013 62.5133 23.408 61.2973 23.408 59.676C23.408 58.004 22.7747 56.4587 21.508 55.04C20.2413 53.6213 18.544 52.1773 16.416 50.708C14.288 49.2387 12.6413 48.048 11.476 47.136C10.3107 46.1733 9.01867 44.9573 7.6 43.488C4.91467 40.6507 3.572 37.028 3.572 32.62C3.572 28.1613 5.11733 24.4373 8.208 21.448C11.2987 18.408 14.972 16.888 19.228 16.888C23.484 16.888 27.056 18.5347 29.944 21.828C32.8827 25.1213 34.352 28.516 34.352 32.012C34.352 35.4573 33.6933 38.4213 32.376 40.904L22.952 37.788ZM57.7303 39.232V46.452C55.2983 46.452 53.4236 46.4773 52.1063 46.528C51.9543 51.5947 51.8783 60.1067 51.8783 72.064L42.9103 71.228C42.9103 62.3613 42.9863 54.3307 43.1383 47.136C42.3783 47.136 40.9343 47.2627 38.8063 47.516L37.6663 41.284C38.8823 41.0307 40.7823 40.7013 43.3663 40.296C43.4676 36.5467 43.6703 31.0747 43.9743 23.88L53.0183 24.716C52.7143 29.732 52.4863 34.596 52.3343 39.308C53.601 39.2573 55.3996 39.232 57.7303 39.232ZM86.6186 35.356L86.4666 47.364C86.4666 58.6627 86.6693 66.972 87.0746 72.292L79.5506 71.532C79.3986 69.404 79.0693 67.2507 78.5626 65.072C75.776 69.176 72.964 71.228 70.1266 71.228C67.34 71.228 65.1106 70.2653 63.4386 68.34C61.7666 66.4147 60.9306 63.7547 60.9306 60.36C60.9306 53.7733 61.412 45.92 62.3746 36.8L71.1906 37.636C70.2786 46.3 69.8226 53.4947 69.8226 59.22C69.8226 61.804 70.6333 63.096 72.2546 63.096C73.0146 63.096 73.9266 62.0573 74.9906 59.98C76.1053 57.9027 76.992 55.3947 77.6506 52.456C77.6 51.3413 77.5746 50.024 77.5746 48.504C77.5746 46.984 77.6506 42.348 77.8026 34.596L86.6186 35.356ZM108.805 36.572L108.881 27.148C108.881 23.652 108.805 19.6747 108.653 15.216L117.545 15.976C117.646 19.5733 117.697 26.1093 117.697 35.584C117.697 45.008 117.291 57.168 116.481 72.064L109.717 71.456C109.565 69.4293 109.413 67.048 109.261 64.312C107.082 68.6693 104.726 70.848 102.193 70.848C98.2914 70.848 95.5807 69.632 94.0607 67.2C92.5407 64.768 91.7807 61.2467 91.7807 56.636C91.7807 51.9747 92.7687 47.1613 94.7447 42.196C96.7714 37.2307 99.0514 34.748 101.585 34.748C103.865 34.748 106.271 35.356 108.805 36.572ZM109.033 43.64C107.766 42.6773 106.499 42.196 105.233 42.196C104.017 42.196 102.953 43.8427 102.041 47.136C101.129 50.3787 100.673 53.7733 100.673 57.32C100.673 60.8667 101.534 62.64 103.257 62.64C103.915 62.64 104.802 61.5507 105.917 59.372C107.031 57.1427 108.045 54.3307 108.957 50.936L109.033 43.64ZM134.961 65.528C136.886 65.528 138.938 63.6787 141.117 59.98L146.893 63.4C145.93 65.072 144.993 66.4907 144.081 67.656C143.219 68.8213 141.902 69.936 140.129 71C138.355 72.064 136.379 72.596 134.201 72.596C131.009 72.596 128.323 71.2533 126.145 68.568C123.966 65.832 122.877 62.1587 122.877 57.548C122.877 52.2787 123.814 47.364 125.689 42.804C126.702 40.4227 128.146 38.4973 130.021 37.028C131.946 35.508 133.897 34.748 135.873 34.748C137.899 34.748 139.521 35.0773 140.737 35.736C141.953 36.344 142.915 37.0533 143.625 37.864C144.385 38.624 145.043 39.764 145.601 41.284C146.158 42.804 146.538 44.0453 146.741 45.008C146.994 45.9707 147.197 47.364 147.349 49.188C147.551 51.62 147.653 53.824 147.653 55.8C143.599 56.9147 138.355 57.928 131.921 58.84C132.073 60.8667 132.427 62.488 132.985 63.704C133.542 64.92 134.201 65.528 134.961 65.528ZM136.633 42.196C135.518 42.196 134.505 43.3107 133.593 45.54C132.731 47.7693 132.225 50.3533 132.073 53.292C134.758 52.7347 137.089 52.2027 139.065 51.696C139.065 45.3627 138.254 42.196 136.633 42.196ZM168.415 34.824C175.103 34.824 178.447 40.3973 178.447 51.544C178.447 57.4213 178.117 63.6533 177.459 70.24L168.567 69.404C169.124 63.628 169.403 57.8013 169.403 51.924C169.403 45.996 168.567 43.032 166.895 43.032C166.084 43.032 165.045 45.084 163.779 49.188C162.512 53.2413 161.727 57.2187 161.423 61.12C161.524 63.1973 161.727 66.9467 162.031 72.368L153.139 71.532C152.581 64.388 152.303 58.1053 152.303 52.684C152.303 47.2627 152.455 42.3987 152.759 38.092L158.383 38.7C158.484 39.1053 158.864 40.752 159.523 43.64C162.461 37.7627 165.425 34.824 168.415 34.824ZM202.754 39.232V46.452C200.322 46.452 198.447 46.4773 197.13 46.528C196.978 51.5947 196.902 60.1067 196.902 72.064L187.934 71.228C187.934 62.3613 188.01 54.3307 188.162 47.136C187.402 47.136 185.958 47.2627 183.83 47.516L182.69 41.284C183.906 41.0307 185.806 40.7013 188.39 40.296C188.491 36.5467 188.694 31.0747 188.998 23.88L198.042 24.716C197.738 29.732 197.51 34.596 197.358 39.308C198.624 39.2573 200.423 39.232 202.754 39.232ZM244.272 37.788C244.931 35.3053 245.26 33.228 245.26 31.556C245.26 29.884 244.804 28.516 243.892 27.452C242.98 26.3373 241.79 25.78 240.32 25.78C238.902 25.78 237.711 26.4893 236.748 27.908C235.786 29.3267 235.304 30.948 235.304 32.772C235.304 36.3187 237.331 39.3587 241.384 41.892C245.438 44.5267 248.199 46.4267 249.668 47.592C251.138 48.7573 252.176 49.8213 252.784 50.784C254.304 53.2667 255.064 55.8253 255.064 58.46C255.064 63.02 253.519 66.668 250.428 69.404C247.388 72.0893 243.943 73.432 240.092 73.432C235.532 73.432 231.707 71.5067 228.616 67.656C226.387 64.8693 224.335 61.3987 222.46 57.244L229.832 53.672C230.998 56.712 232.442 59.296 234.164 61.424C235.938 63.5013 237.812 64.54 239.788 64.54C241.055 64.54 242.195 64.1347 243.208 63.324C244.222 62.5133 244.728 61.2973 244.728 59.676C244.728 58.004 244.095 56.4587 242.828 55.04C241.562 53.6213 239.864 52.1773 237.736 50.708C235.608 49.2387 233.962 48.048 232.796 47.136C231.631 46.1733 230.339 44.9573 228.92 43.488C226.235 40.6507 224.892 37.028 224.892 32.62C224.892 28.1613 226.438 24.4373 229.528 21.448C232.619 18.408 236.292 16.888 240.548 16.888C244.804 16.888 248.376 18.5347 251.264 21.828C254.203 25.1213 255.672 28.516 255.672 32.012C255.672 35.4573 255.014 38.4213 253.696 40.904L244.272 37.788ZM270.463 40.22C272.489 37.1293 274.997 35.584 277.987 35.584C280.976 35.584 283.307 36.8 284.979 39.232C286.651 41.664 287.487 44.856 287.487 48.808C287.487 54.6853 286.22 60.0307 283.687 64.844C281.204 69.6573 278.544 72.064 275.707 72.064C273.68 72.064 271.932 71.8107 270.463 71.304C270.564 78.296 270.741 84.4013 270.995 89.62L262.103 88.708C261.849 79.588 261.723 69.9107 261.723 59.676C261.723 49.3907 262.077 40.524 262.787 33.076L270.691 33.912L270.463 40.22ZM272.743 64.464C274.161 64.464 275.479 63.0707 276.695 60.284C277.961 57.4973 278.595 54.7107 278.595 51.924C278.595 49.0867 278.341 46.908 277.835 45.388C277.328 43.8173 276.745 43.032 276.087 43.032C274.972 43.032 273.984 43.6907 273.123 45.008C272.312 46.3253 271.451 48.2253 270.539 50.708C270.488 53.3427 270.463 57.396 270.463 62.868C271.223 63.932 271.983 64.464 272.743 64.464ZM292.059 48.58C292.819 44.628 294.263 41.284 296.391 38.548C298.519 35.7613 301.305 34.368 304.751 34.368C308.196 34.368 310.729 35.812 312.351 38.7C314.023 41.5373 314.859 45.5907 314.859 50.86C314.859 56.1293 314.555 63.4 313.947 72.672L307.562 72.14L306.955 69.708C304.573 71.076 302.141 71.76 299.659 71.76C297.176 71.76 295.124 70.9493 293.503 69.328C291.881 67.656 291.07 65.2747 291.07 62.184C291.07 59.0933 292.591 56.4333 295.631 54.204C298.721 51.9747 302.268 50.8093 306.271 50.708V48.656C306.271 44.6533 305.308 42.652 303.383 42.652C302.42 42.652 301.533 43.336 300.723 44.704C299.963 46.0213 299.405 47.5413 299.051 49.264L292.059 48.58ZM298.823 62.64C298.823 64.2613 299.785 65.072 301.711 65.072C303.028 65.072 304.421 64.768 305.891 64.16L306.043 57.776C303.661 57.9787 301.863 58.5867 300.647 59.6C299.431 60.5627 298.823 61.576 298.823 62.64ZM335.808 51.544C335.909 50.8347 335.96 49.9227 335.96 48.808C335.96 47.6933 335.732 46.5533 335.276 45.388C334.82 44.2227 334.237 43.64 333.528 43.64C332.109 43.64 331.07 45.2867 330.412 48.58C329.804 51.8227 329.5 54.812 329.5 57.548C329.5 62.1587 330.437 64.464 332.312 64.464C333.832 64.464 335.985 61.804 338.772 56.484L344.396 60.512C343.028 64.2107 341.305 67.1493 339.228 69.328C337.201 71.5067 334.744 72.596 331.856 72.596C328.968 72.596 326.358 71.456 324.028 69.176C321.748 66.896 320.608 63.4253 320.608 58.764C320.608 53.7987 321.418 48.8587 323.04 43.944C323.952 41.2587 325.294 39.0547 327.068 37.332C328.892 35.6093 331.197 34.748 333.984 34.748C336.77 34.748 339.076 36.1667 340.9 39.004C342.774 41.8413 343.712 44.9827 343.712 48.428C343.712 49.8973 343.484 51.164 343.028 52.228L335.808 51.544ZM359.027 65.528C360.952 65.528 363.004 63.6787 365.183 59.98L370.959 63.4C369.996 65.072 369.059 66.4907 368.147 67.656C367.286 68.8213 365.968 69.936 364.195 71C362.422 72.064 360.446 72.596 358.267 72.596C355.075 72.596 352.39 71.2533 350.211 68.568C348.032 65.832 346.943 62.1587 346.943 57.548C346.943 52.2787 347.88 47.364 349.755 42.804C350.768 40.4227 352.212 38.4973 354.087 37.028C356.012 35.508 357.963 34.748 359.939 34.748C361.966 34.748 363.587 35.0773 364.803 35.736C366.019 36.344 366.982 37.0533 367.691 37.864C368.451 38.624 369.11 39.764 369.667 41.284C370.224 42.804 370.604 44.0453 370.807 45.008C371.06 45.9707 371.263 47.364 371.415 49.188C371.618 51.62 371.719 53.824 371.719 55.8C367.666 56.9147 362.422 57.928 355.987 58.84C356.139 60.8667 356.494 62.488 357.051 63.704C357.608 64.92 358.267 65.528 359.027 65.528ZM360.699 42.196C359.584 42.196 358.571 43.3107 357.659 45.54C356.798 47.7693 356.291 50.3533 356.139 53.292C358.824 52.7347 361.155 52.2027 363.131 51.696C363.131 45.3627 362.32 42.196 360.699 42.196Z" fill="#7A96A4"/>
</svg>
